<svg width="23" height="22" viewBox="0 0 23 22" fill="none" xmlns="http://www.w3.org/2000/svg">
<path d="M11.5 1V5.21053"  stroke-width="1.5" stroke-linecap="round" stroke-linejoin="round"/>
<path d="M3.1001 5.21054L5.7251 7.84212"  stroke-width="1.5" stroke-linecap="round" stroke-linejoin="round"/>
<path d="M17.2751 7.84212L19.9001 5.21054"  stroke-width="1.5" stroke-linecap="round" stroke-linejoin="round"/>
<path d="M2.05005 14.6842H5.20005"  stroke-width="1.5" stroke-linecap="round" stroke-linejoin="round"/>
<path d="M11.5 14.6842L12.55 8.36841"  stroke-width="1.5" stroke-linecap="round" stroke-linejoin="round"/>
<path d="M17.8 14.6842H20.95"  stroke-width="1.5" stroke-linecap="round" stroke-linejoin="round"/>
<path d="M7.825 17.8432H3.1C1.78139 16.0837 1 13.8964 1 11.5263C1 5.71279 5.70101 1 11.5 1C17.2989 1 22 5.71279 22 11.5263C22 13.8964 21.2186 16.0837 19.9 17.8432L15.175 17.8421"  stroke-width="1.5" stroke-linecap="round" stroke-linejoin="round"/>
<path d="M11.5001 21C13.2398 21 14.6501 19.5862 14.6501 17.8421C14.6501 16.098 13.2398 14.6842 11.5001 14.6842C9.76035 14.6842 8.3501 16.098 8.3501 17.8421C8.3501 19.5862 9.76035 21 11.5001 21Z"  stroke-width="1.5" stroke-linecap="round" stroke-linejoin="round"/>
</svg>
